<svg width="288" height="68" viewBox="0 0 288 68" fill="none" xmlns="http://www.w3.org/2000/svg">
<path d="M38 14.51C38 14.51 25.9018 27.8838 25.9018 33.5233C25.9018 39.1628 38 52.5366 38 52.5366C38 52.5366 24.6261 40.425 19 40.425C13.3739 40.425 0 52.5366 0 52.5366C0 52.5366 12.1117 39.1628 12.1117 33.5233C12.1117 27.8972 0 14.51 0 14.51C0 14.51 13.3739 26.6216 19 26.6216C24.6261 26.6216 38 14.51 38 14.51Z" fill="#15100D"/>
<path d="M287.5 0C287.5 0 266.169 23.58 266.169 33.5234C266.169 43.4668 287.5 67.0469 287.5 67.0469C287.5 67.0469 263.92 45.6922 254 45.6922C244.08 45.6922 220.5 67.0469 220.5 67.0469C220.5 67.0469 241.855 43.4668 241.855 33.5234C241.855 23.6037 220.5 0 220.5 0C220.5 0 244.08 21.3546 254 21.3546C263.92 21.3546 287.5 0 287.5 0Z" fill="#15100D"/>
</svg>
